<?xml version="1.0" encoding="iso-8859-1"?>
<!-- Generator: Adobe Illustrator 19.0.0, SVG Export Plug-In . SVG Version: 6.00 Build 0)  -->
<svg version="1.1" id="Layer_1" xmlns="http://www.w3.org/2000/svg" xmlns:xlink="http://www.w3.org/1999/xlink" x="0px" y="0px"
	 viewBox="0 0 512 512" style="enable-background:new 0 0 512 512;" xml:space="preserve">
<g>
	<g>
		<path d="M333.017,258.225H200.989c-4.666,0-8.449,3.783-8.449,8.449v110.023c0,4.666,3.783,8.449,8.449,8.449h69.159
			c4.666,0,8.449-3.783,8.449-8.449s-3.783-8.449-8.449-8.449h-60.71v-93.125h115.13v93.125h-20.624
			c-4.666,0-8.449,3.783-8.449,8.449s3.783,8.449,8.449,8.449h29.073c4.666,0,8.449-3.783,8.449-8.449V266.674
			C341.465,262.008,337.683,258.225,333.017,258.225z"/>
	</g>
</g>
<g>
	<g>
		<path d="M341.464,161.56v-43.746c0-4.666-3.783-8.449-8.449-8.449h-30.971V83.982c3.826-0.807,6.697-4.2,6.697-8.265V8.449
			c0-4.666-3.783-8.449-8.449-8.449h-66.581h-98.737c-2.917,0-5.628,1.504-7.17,3.98c-1.542,2.475-1.699,5.572-0.415,8.191
			l16.503,33.634c1.419,2.893,4.362,4.727,7.585,4.727h73.784v25.185c0,4.066,2.873,7.458,6.697,8.265v25.384h-30.971
			c-4.666,0-8.449,3.783-8.449,8.449v43.746c-28.021,22.619-44.01,55.956-44.01,92.139v249.852c0,4.666,3.783,8.449,8.449,8.449
			h220.046c4.666,0,8.449-3.783,8.449-8.449V253.7C385.474,217.517,369.486,184.179,341.464,161.56z M225.263,33.634h-68.519
			l-8.212-16.737h76.731V33.634z M242.161,42.083V16.898h49.684v50.371h-49.684V42.083z M285.147,84.166v25.2h-36.288v-25.2H285.147
			z M368.576,495.102L368.576,495.102H165.429V253.7c0-32.25,14.811-61.871,40.637-81.269c0.054-0.041,0.1-0.086,0.153-0.127
			c0.105-0.083,0.207-0.169,0.309-0.257c0.117-0.101,0.231-0.204,0.341-0.31c0.079-0.076,0.153-0.154,0.229-0.233
			c0.119-0.125,0.237-0.251,0.348-0.383c0.06-0.07,0.115-0.143,0.172-0.215c0.114-0.144,0.225-0.29,0.328-0.439
			c0.051-0.073,0.097-0.15,0.145-0.224c0.098-0.152,0.194-0.305,0.282-0.463c0.048-0.087,0.092-0.177,0.137-0.266
			c0.077-0.15,0.152-0.301,0.22-0.455c0.045-0.104,0.086-0.211,0.127-0.318c0.056-0.145,0.113-0.291,0.161-0.439
			c0.037-0.115,0.07-0.232,0.101-0.348c0.042-0.149,0.081-0.297,0.115-0.447c0.025-0.114,0.045-0.229,0.065-0.344
			c0.029-0.163,0.055-0.326,0.074-0.49c0.012-0.104,0.021-0.207,0.029-0.312c0.015-0.184,0.025-0.367,0.028-0.551
			c0.001-0.045,0.007-0.088,0.007-0.133v-39.412h30.971h53.186h30.971v30.963h-89.783h-0.001c-4.666,0-8.449,3.783-8.449,8.449
			c0,4.666,3.783,8.449,8.449,8.449h0.001h95.35c24.467,19.405,38.442,48.251,38.442,79.576V495.102z"/>
	</g>
</g>
<g>
</g>
<g>
</g>
<g>
</g>
<g>
</g>
<g>
</g>
<g>
</g>
<g>
</g>
<g>
</g>
<g>
</g>
<g>
</g>
<g>
</g>
<g>
</g>
<g>
</g>
<g>
</g>
<g>
</g>
</svg>
